<svg version="1.1" width="26" height="26" viewBox="-1 -1 26 26" xmlns="http://www.w3.org/2000/svg" xmlns:xlink="http://www.w3.org/1999/xlink">
  <!-- Exported by Scratch - http://scratch.mit.edu/ -->
  <path id="ID0.15272649144753814" fill="none" stroke="#B2B2B2" stroke-width="2" d="M 244.725 170.500 C 247.781 170.500 250.549 171.741 252.554 173.746 C 254.559 175.751 255.800 178.519 255.800 181.575 C 255.800 184.631 254.559 187.399 252.554 189.404 C 250.549 191.409 247.781 192.650 244.725 192.650 C 241.669 192.650 238.901 191.409 236.896 189.404 C 234.891 187.399 233.650 184.631 233.650 181.575 C 233.650 178.519 234.891 175.751 236.896 173.746 C 238.901 171.741 241.669 170.500 244.725 170.500 Z " transform="matrix(1, 0, 0, 1, -232.65, -168.55)"/>
  <path id="ID0.7627339768223464" fill="none" stroke="#B2B2B2" stroke-width="2" stroke-linecap="round" d="M 240 176.050 L 240 183.550 " transform="matrix(1, 0, 0, 1, -228, -167)"/>
  <path id="ID0.18523314921185374" fill="none" stroke="#B2B2B2" stroke-width="2" stroke-linecap="round" d="M 236.200 180 L 243.700 179.950 " transform="matrix(1, 0, 0, 1, -228, -167)"/>
</svg>