<svg version="1.1" width="132" height="99" viewBox="-1 -1 132 99" xmlns="http://www.w3.org/2000/svg" xmlns:xlink="http://www.w3.org/1999/xlink">
  <!-- Exported by Scratch - http://scratch.mit.edu/ -->
  <path id="ID0.46995245292782784" fill="#E3D930" d="M 76.482 42.721 C 86.558 42.721 95.688 46.327 102.299 52.153 C 108.911 57.979 113.003 66.024 113.003 74.903 C 113.003 83.782 108.911 91.827 102.299 97.653 C 95.688 103.479 86.558 107.085 76.482 107.085 C 66.406 107.085 57.276 103.479 50.665 97.653 C 44.053 91.827 39.961 83.782 39.961 74.903 C 39.961 66.024 44.053 57.979 50.665 52.153 C 57.276 46.327 66.406 42.721 76.482 42.721 Z " transform="matrix(1, 0, 0, 1, -6, -23)"/>
  <path id="ID0.8608896699734032" fill="none" stroke="#9B8579" stroke-width="0.5" d="M 76.482 42.721 C 86.558 42.721 95.688 46.327 102.299 52.153 C 108.911 57.979 113.003 66.024 113.003 74.903 C 113.003 83.782 108.911 91.827 102.299 97.653 C 95.688 103.479 86.558 107.085 76.482 107.085 C 66.406 107.085 57.276 103.479 50.665 97.653 C 44.053 91.827 39.961 83.782 39.961 74.903 C 39.961 66.024 44.053 57.979 50.665 52.153 C 57.276 46.327 66.406 42.721 76.482 42.721 Z " transform="matrix(1, 0, 0, 1, -6, -23)"/>
  <path id="ID0.99296072172001" fill="none" stroke="#9B8579" stroke-width="0.5" d="M 36.527 42.718 C 36.527 42.718 46.108 45.612 52.979 40.549 C 59.850 35.486 58.947 23.374 58.947 23.374 C 58.947 23.374 60.574 35.667 66.179 35.667 C 71.783 35.667 74.315 26.446 74.315 26.446 C 74.315 26.446 72.326 36.934 81.367 37.657 C 90.407 38.380 92.938 29.340 92.938 29.340 C 92.938 29.340 90.044 39.103 97.096 40.551 C 104.148 41.998 107.762 36.033 107.762 36.033 C 107.762 36.033 106.316 40.010 109.209 40.369 C 112.103 40.732 125.481 34.946 125.481 34.946 C 125.481 34.946 115.536 44.891 121.502 49.050 C 127.468 53.209 134.339 49.771 134.339 49.771 C 134.339 49.771 121.728 55.685 123.720 60.384 C 125.710 65.084 136.509 66.225 136.509 66.225 C 136.509 66.225 122.429 67.325 122.429 76.721 C 122.429 87.254 136.870 84.487 136.870 84.487 C 136.870 84.487 129.998 84.304 131.082 89.188 C 132.168 94.067 133.795 95.334 133.795 95.334 C 133.795 95.334 129.815 94.432 128.008 98.046 C 126.199 101.662 129.453 107.447 129.453 107.447 C 129.453 107.447 122.223 98.224 117.883 102.746 C 113.543 107.267 116.618 116.486 116.618 116.486 C 116.618 116.486 108.484 107.989 103.961 109.978 C 99.440 111.967 98.537 121.005 98.537 121.005 C 98.537 121.005 91.484 111.244 83.710 111.424 C 75.938 111.603 73.224 118.476 73.224 118.476 C 73.224 118.476 74.126 110.881 68.162 110.160 C 62.197 109.434 58.038 117.030 58.038 117.030 C 58.038 117.030 59.665 109.255 56.772 108.169 C 53.877 107.083 48.454 112.510 48.454 112.510 C 48.454 112.510 51.349 106.179 48.454 104.011 C 45.560 101.841 39.412 106.179 39.412 106.179 C 39.412 106.179 42.848 100.394 39.233 98.225 C 35.618 96.056 29.831 100.396 29.831 100.396 C 29.831 100.396 33.810 94.973 31.459 91.176 C 29.107 87.380 22.418 89.188 22.418 89.188 C 22.418 89.188 28.564 82.318 27.299 78.702 C 26.035 75.086 19.346 75.447 19.346 75.447 C 19.346 75.447 26.756 73.095 26.396 69.843 C 26.037 66.590 6.871 61.527 6.871 61.527 C 6.871 61.527 29.834 66.408 31.462 59.900 C 33.089 53.390 25.674 50.317 25.674 50.317 C 25.674 50.317 33.992 53.570 37.969 50.136 C 41.947 46.700 36.527 42.718 36.527 42.718 Z " transform="matrix(1, 0, 0, 1, -6, -23)"/>
  <g id="ID0.8149010674096644">
    <path id="ID0.15032750787213445" fill="#FBB040" d="M 134.421 84.762 C 135.876 84.670 136.872 84.486 136.872 84.486 C 136.872 84.486 135.712 84.460 134.421 84.762 Z " transform="matrix(1, 0, 0, 1, -6, -23)"/>
    <path id="ID0.306244807317853" fill="#FBB040" d="M 131.087 89.187 C 130.448 86.309 132.568 85.197 134.421 84.762 C 130.305 85.020 122.432 84.500 122.432 76.720 C 122.432 67.322 136.513 66.224 136.513 66.224 C 136.513 66.224 125.711 65.085 123.721 60.383 C 121.732 55.682 134.341 49.770 134.341 49.770 C 134.341 49.770 127.472 53.208 121.505 49.049 C 115.537 44.891 125.483 34.945 125.483 34.945 C 125.483 34.945 112.105 40.731 109.211 40.368 C 106.317 40.007 107.765 36.032 107.765 36.032 C 107.765 36.032 104.151 41.997 97.098 40.550 C 90.046 39.102 92.940 29.339 92.940 29.339 C 92.940 29.339 90.410 38.379 81.370 37.656 C 72.330 36.934 74.317 26.445 74.317 26.445 C 74.317 26.445 71.787 35.666 66.183 35.666 C 60.578 35.666 58.951 23.373 58.951 23.373 C 58.951 23.373 59.854 35.487 52.984 40.548 C 46.112 45.610 36.531 42.717 36.531 42.717 C 36.531 42.717 41.955 46.697 37.977 50.131 C 33.998 53.565 25.682 50.312 25.682 50.312 C 25.682 50.312 33.096 53.385 31.470 59.895 C 29.844 66.404 6.879 61.522 6.879 61.522 C 6.879 61.522 26.046 66.584 26.406 69.839 C 26.765 73.093 19.355 75.443 19.355 75.443 C 19.355 75.443 26.044 75.082 27.309 78.697 C 28.573 82.313 22.427 89.185 22.427 89.185 C 22.427 89.185 29.118 87.373 31.469 91.170 C 33.820 94.969 29.841 100.391 29.841 100.391 C 29.841 100.391 35.627 96.053 39.242 98.220 C 42.857 100.391 39.422 106.175 39.422 106.175 C 39.422 106.175 45.569 101.838 48.464 104.007 C 51.358 106.175 48.464 112.504 48.464 112.504 C 48.464 112.504 53.886 107.079 56.781 108.165 C 59.675 109.251 58.047 117.023 58.047 117.023 C 58.047 117.023 62.205 109.429 68.171 110.154 C 74.136 110.876 73.233 118.472 73.233 118.472 C 73.233 118.472 75.944 111.600 83.719 111.419 C 91.493 111.237 98.546 121.002 98.546 121.002 C 98.546 121.002 99.449 111.961 103.973 109.973 C 108.494 107.983 116.625 116.482 116.625 116.482 C 116.625 116.482 113.553 107.263 117.892 102.741 C 122.232 98.220 129.462 107.442 129.462 107.442 C 129.462 107.442 126.210 101.656 128.018 98.042 C 129.825 94.425 133.804 95.329 133.804 95.329 C 133.804 95.329 132.173 94.065 131.087 89.187 Z M 76.482 107.085 C 56.311 107.085 39.961 92.676 39.961 74.902 C 39.961 57.129 56.313 42.720 76.482 42.720 C 96.649 42.720 113.003 57.129 113.003 74.902 C 113.004 92.676 96.652 107.085 76.482 107.085 Z " transform="matrix(1, 0, 0, 1, -6, -23)"/>
  </g>
  <path id="ID0.7133496729657054" fill="#FF0000" stroke="#FF0000" d="M 249.500 175 C 252.949 175 256.074 175.952 258.336 177.491 C 260.599 179.030 262 181.155 262 183.500 C 262 185.845 260.599 187.970 258.336 189.509 C 256.074 191.048 252.949 192 249.500 192 C 246.051 192 242.926 191.048 240.664 189.509 C 238.401 187.970 237 185.845 237 183.500 C 237 181.155 238.401 179.030 240.664 177.491 C 242.926 175.952 246.051 175 249.500 175 Z " transform="matrix(1, 0, 0, 1.3953487873077393, -179, -204.75)"/>
  <path id="ID0.7348870309069753" fill="none" stroke="#FF0000" d="M 240 178 C 240 178 240 178.056 240 178.147 C 240 178.237 240 178.362 240 178.500 C 240 178.638 240 178.763 240 178.853 C 240 178.944 240 179 240 179 C 240 179 240 178.944 240 178.853 C 240 178.763 240 178.638 240 178.500 C 240 178.362 240 178.237 240 178.147 C 240 178.056 240 178 240 178 Z " transform="matrix(1, 0, 0, 1, -174, -131)"/>
</svg>