<svg version="1.1" width="93" height="123" viewBox="-1 -1 93 123" xmlns="http://www.w3.org/2000/svg" xmlns:xlink="http://www.w3.org/1999/xlink">
  <!-- Exported by Scratch - http://scratch.mit.edu/ -->
  <g id="ID0.7810848597437143">
    <path id="ID0.28432200802490115" fill="#D7B13B" d="M 144.800 10 L 145 11 L 144.800 10 L 67.800 128.900 L 68.300 129.300 C 74.900 129.300 80.900 129.900 86.100 131.200 L 166.800 6.100 L 144.800 10 Z " transform="matrix(0.466142863035202, 0, 0, 0.466142863035202, 0.05, -1.05)"/>
    <path id="ID0.35194656951352954" fill="#CB6E33" d="M 193.800 40 L 191.700 21.100 L 110.300 143.900 L 109.300 145.500 C 111.800 148.800 114.400 153 117 158 L 193.800 40 Z " transform="matrix(0.466142863035202, 0, 0, 0.466142863035202, 0.05, -1.05)"/>
    <path id="ID0.13818775676190853" fill="#D7B13B" d="M 191.700 21.100 C 184.800 18.400 176.500 13.400 166.800 6.100 L 86.100 131.200 C 93.300 132.800 99.200 135.700 103.900 139.700 L 110.300 143.900 L 191.700 21.100 Z " transform="matrix(0.466142863035202, 0, 0, 0.466142863035202, 0.05, -1.05)"/>
    <path id="ID0.7808091449551284" fill="#999999" d="M 111 179.300 C 111.400 176.400 112.500 173.600 114.200 171 C 115.200 169.500 116.700 167.400 118.800 164.600 L 119.600 163.400 L 117 158 C 114.400 153 111.800 148.800 109.300 145.500 C 107.500 143.100 105.700 141.200 103.900 139.700 C 99.200 135.700 93.300 132.800 86.100 131.200 C 80.900 129.900 74.900 129.300 68.300 129.300 L 67.500 129.300 L 67.400 129.300 C 63.600 129.300 61.100 129.500 60.100 129.800 L 59.200 130.400 C 59 130.700 56.400 135.400 51.300 144.600 C 50.900 145.400 48.900 146.900 45.300 148.900 C 42.600 150.400 41.500 152.400 42 154.800 C 42.400 156.500 42.200 157.700 41.400 158.500 C 40.900 158.900 40 159.400 38.500 159.700 C 37 160.100 35.900 160.500 35.400 160.900 C 34.500 161.500 34.100 162.600 34.200 164.100 C 34.400 166.100 34.100 167.500 33.500 168.300 C 33.100 168.700 32.300 169.100 31.100 169.300 C 29.900 169.400 29.100 169.700 28.600 170.100 C 27.800 170.800 27.400 172.100 27.400 174 C 27.400 175.100 26.500 177.600 24.700 181.500 C 23.200 184.800 22 187.200 21.100 188.500 C 21 188.600 21 188.600 21 188.600 L 21 189.500 C 23.600 189.700 26.100 190 28.700 190.300 C 38.800 191.700 48.500 194.700 57.900 199.300 C 68 204.300 75.200 210.200 79.400 216.900 C 80.100 218 81.300 219.800 83 222.100 C 83 222.200 83.100 222.300 83.100 222.300 L 83.600 222.300 C 83.600 222.300 83.600 222.300 83.600 222.200 C 83.800 218.900 84.800 215.800 86.400 212.800 C 88.400 209.400 90.900 207.500 93.800 207.100 C 95.800 206.900 96.900 205.900 97.200 203.900 C 97.600 200.700 98 198.900 98.200 198.300 C 98.600 197.500 100 196.800 102.500 196.100 C 104.500 195.500 105.600 194.500 105.600 193 C 105.600 190.500 105.800 189 106.100 188.200 C 106.300 187.800 106.800 187.500 107.500 187.400 C 109 187 110.200 184.300 111 179.300 Z M 42.600 172.500 C 42.800 172.500 43.300 172.400 43.900 172.100 C 47.200 172.100 57.600 175.800 75 183.200 C 77.400 184.700 80.100 187.500 83 191.500 C 85.800 195.300 87.800 197.600 88.900 198.200 C 87.800 197.600 85.800 195.300 83 191.500 C 80.100 187.500 77.400 184.700 75 183.200 C 57.600 175.800 47.200 172.100 43.900 172.100 C 43.300 172.400 42.800 172.500 42.600 172.500 Z M 48.600 159.400 L 51.600 159.400 C 63.700 162 73.800 165.900 82.100 171.200 C 86 173.700 91.500 178.300 98.500 184.900 C 91.500 178.300 86 173.700 82.100 171.200 C 73.800 165.900 63.700 162 51.600 159.400 L 48.600 159.400 Z M 88.900 157.100 C 96.800 160.600 102.300 165.100 105.200 170.500 C 102.300 165.100 96.800 160.600 88.900 157.100 C 84.700 155.200 74.500 151.700 58.400 146.800 C 74.500 151.700 84.700 155.200 88.900 157.100 Z " transform="matrix(0.466142863035202, 0, 0, 0.466142863035202, 0.05, -1.05)"/>
    <path id="ID0.1026272545568645" fill="#666666" d="M 21 188.600 C 20.700 188.700 20.500 189 20.500 189.500 C 20.500 192.600 21.400 195.100 23.300 197.200 L 23.900 197.600 L 28.700 190.300 C 26.100 190 23.600 189.700 21 189.500 L 21 188.600 C 21 188.600 21 188.600 21.100 188.500 C 21 188.500 21 188.500 21 188.600 Z " transform="matrix(0.466142863035202, 0, 0, 0.466142863035202, 0.05, -1.05)"/>
    <path id="ID0.8468243014067411" fill="#F6AF95" d="M 3.300 229.200 C 2.500 231.900 2 234.200 2 236.200 C 2 239.600 3 242.600 4.900 245.300 C 5.900 246.800 8.700 249.800 13.200 254.300 C 18.300 259.500 26.400 262 37.500 262 C 40.700 262 44 261.400 47.200 260.300 C 50.800 259.100 53.100 257.600 54.200 255.800 L 54.400 255.200 L 75.200 223.400 L 79.400 216.900 C 75.200 210.200 68 204.300 57.900 199.300 C 48.500 194.700 38.800 191.700 28.700 190.300 L 23.900 197.600 L 3.300 229.200 Z M 12.800 229.400 L 15.500 229.400 C 22.700 230.800 29.100 232.900 34.700 235.800 C 41.300 239.100 45.700 243.100 47.900 247.600 C 45.700 243.100 41.300 239.100 34.700 235.800 C 29.100 232.900 22.700 230.800 15.500 229.400 L 12.800 229.400 Z " transform="matrix(0.466142863035202, 0, 0, 0.466142863035202, 0.05, -1.05)"/>
    <path id="ID0.14617776218801737" fill="#666666" d="M 83.200 222.600 L 83 222.100 C 81.300 219.800 80.100 218 79.400 216.900 L 75.200 223.400 C 75.300 223.400 76.700 223.800 79.600 224.600 C 80.300 224.600 81.500 224 83.200 222.600 Z " transform="matrix(0.466142863035202, 0, 0, 0.466142863035202, 0.05, -1.05)"/>
    <path id="ID0.40429773181676865" fill="none" stroke="#000000" stroke-width="4" stroke-linecap="round" stroke-linejoin="round" d="M 145 11 L 144.800 10 " transform="matrix(0.466142863035202, 0, 0, 0.466142863035202, 0.05, -1.05)"/>
    <path id="ID0.787429531570524" fill="none" stroke="#000000" stroke-width="4" stroke-linecap="round" stroke-linejoin="round" d="M 144.800 10 L 166.800 6.100 " transform="matrix(0.466142863035202, 0, 0, 0.466142863035202, 0.05, -1.05)"/>
    <path id="ID0.17290590424090624" fill="none" stroke="#000000" stroke-width="4" stroke-linecap="round" stroke-linejoin="round" d="M 191.700 21.100 L 193.800 40 L 117 158 " transform="matrix(0.466142863035202, 0, 0, 0.466142863035202, 0.05, -1.05)"/>
    <path id="ID0.3082772484049201" fill="none" stroke="#000000" stroke-width="4" stroke-linecap="round" stroke-linejoin="round" d="M 166.800 6.100 C 176.500 13.400 184.800 18.400 191.700 21.100 " transform="matrix(0.466142863035202, 0, 0, 0.466142863035202, 0.05, -1.05)"/>
    <path id="ID0.5760392444208264" fill="none" stroke="#000000" stroke-width="4" stroke-linecap="round" stroke-linejoin="round" d="M 83.600 222.300 C 83.600 222.300 83.600 222.300 83.600 222.200 C 83.800 218.900 84.800 215.800 86.400 212.800 C 88.400 209.400 90.900 207.500 93.800 207.100 C 95.800 206.900 96.900 205.900 97.200 203.900 C 97.600 200.700 98 198.900 98.200 198.300 C 98.600 197.500 100 196.800 102.500 196.100 C 104.500 195.500 105.600 194.500 105.600 193 C 105.600 190.500 105.800 189 106.100 188.200 C 106.300 187.800 106.800 187.500 107.500 187.400 C 109 187 110.200 184.300 111 179.300 C 111.400 176.400 112.500 173.600 114.200 171 C 115.200 169.500 116.700 167.400 118.800 164.600 " transform="matrix(0.466142863035202, 0, 0, 0.466142863035202, 0.05, -1.05)"/>
    <path id="ID0.5527066234499216" fill="none" stroke="#000000" stroke-width="4" stroke-linecap="round" stroke-linejoin="round" d="M 119.600 163.400 L 117 158 " transform="matrix(0.466142863035202, 0, 0, 0.466142863035202, 0.05, -1.05)"/>
    <path id="ID0.337168590631336" fill="none" stroke="#000000" stroke-width="4" stroke-linecap="round" stroke-linejoin="round" d="M 109.300 145.500 L 110.300 143.900 L 191.700 21.100 " transform="matrix(0.466142863035202, 0, 0, 0.466142863035202, 0.05, -1.05)"/>
    <path id="ID0.24041158286854625" fill="none" stroke="#000000" stroke-width="4" stroke-linecap="round" stroke-linejoin="round" d="M 109.300 145.500 C 107.500 143.100 105.700 141.200 103.900 139.700 C 99.200 135.700 93.300 132.800 86.100 131.200 " transform="matrix(0.466142863035202, 0, 0, 0.466142863035202, 0.05, -1.05)"/>
    <path id="ID0.6169429863803089" fill="none" stroke="#000000" stroke-width="4" stroke-linecap="round" stroke-linejoin="round" d="M 67.500 129.300 L 67.400 129.300 C 63.600 129.300 61.100 129.500 60.100 129.800 " transform="matrix(0.466142863035202, 0, 0, 0.466142863035202, 0.05, -1.05)"/>
    <path id="ID0.19377167662605643" fill="none" stroke="#000000" stroke-width="4" stroke-linecap="round" stroke-linejoin="round" d="M 67.500 129.300 L 67.800 128.900 L 144.800 10 " transform="matrix(0.466142863035202, 0, 0, 0.466142863035202, 0.05, -1.05)"/>
    <path id="ID0.7439617072232068" fill="none" stroke="#000000" stroke-width="4" stroke-linecap="round" stroke-linejoin="round" d="M 86.100 131.200 C 80.900 129.900 74.900 129.300 68.300 129.300 L 67.500 129.300 " transform="matrix(0.466142863035202, 0, 0, 0.466142863035202, 0.05, -1.05)"/>
    <path id="ID0.645035267341882" fill="none" stroke="#000000" stroke-width="4" stroke-linecap="round" stroke-linejoin="round" d="M 21.100 188.500 C 22 187.200 23.200 184.800 24.700 181.500 C 26.500 177.600 27.400 175.100 27.400 174 C 27.400 172.100 27.800 170.800 28.600 170.100 C 29.100 169.700 29.900 169.400 31.100 169.300 C 32.300 169.100 33.100 168.700 33.500 168.300 C 34.100 167.500 34.400 166.100 34.200 164.100 C 34.100 162.600 34.500 161.500 35.400 160.900 C 35.900 160.500 37 160.100 38.500 159.700 C 40 159.400 40.900 158.900 41.400 158.500 C 42.200 157.700 42.400 156.500 42 154.800 C 41.500 152.400 42.600 150.400 45.300 148.900 C 48.900 146.900 50.900 145.400 51.300 144.600 C 56.400 135.400 59 130.700 59.200 130.400 " transform="matrix(0.466142863035202, 0, 0, 0.466142863035202, 0.05, -1.05)"/>
    <path id="ID0.5924094012007117" fill="none" stroke="#000000" stroke-width="4" stroke-linecap="round" stroke-linejoin="round" d="M 88.900 198.200 C 87.800 197.600 85.800 195.300 83 191.500 C 80.100 187.500 77.400 184.700 75 183.200 C 57.600 175.800 47.200 172.100 43.900 172.100 C 43.300 172.400 42.800 172.500 42.600 172.500 " transform="matrix(0.466142863035202, 0, 0, 0.466142863035202, 0.05, -1.05)"/>
    <path id="ID0.7166069275699556" fill="none" stroke="#000000" stroke-width="4" stroke-linecap="round" stroke-linejoin="round" d="M 98.500 184.900 C 91.500 178.300 86 173.700 82.100 171.200 C 73.800 165.900 63.700 162 51.600 159.400 L 48.600 159.400 " transform="matrix(0.466142863035202, 0, 0, 0.466142863035202, 0.05, -1.05)"/>
    <path id="ID0.17000629333779216" fill="none" stroke="#000000" stroke-width="4" stroke-linecap="round" stroke-linejoin="round" d="M 105.200 170.500 C 102.300 165.100 96.800 160.600 88.900 157.100 C 84.700 155.200 74.500 151.700 58.400 146.800 " transform="matrix(0.466142863035202, 0, 0, 0.466142863035202, 0.05, -1.05)"/>
    <path id="ID0.18965483270585537" fill="none" stroke="#000000" stroke-width="4" stroke-linecap="round" stroke-linejoin="round" d="M 23.300 197.200 C 21.400 195.100 20.500 192.600 20.500 189.500 C 20.500 189 20.700 188.700 21 188.600 C 21 188.500 21 188.500 21.100 188.500 " transform="matrix(0.466142863035202, 0, 0, 0.466142863035202, 0.05, -1.05)"/>
    <path id="ID0.8940332676284015" fill="none" stroke="#000000" stroke-width="4" stroke-linecap="round" stroke-linejoin="round" d="M 28.700 190.300 C 26.100 190 23.600 189.700 21 189.500 L 21 188.600 C 21 188.600 21 188.600 21.100 188.500 " transform="matrix(0.466142863035202, 0, 0, 0.466142863035202, 0.05, -1.05)"/>
    <path id="ID0.8133699148893356" fill="none" stroke="#000000" stroke-width="4" stroke-linecap="round" stroke-linejoin="round" d="M 47.900 247.600 C 45.700 243.100 41.300 239.100 34.700 235.800 C 29.100 232.900 22.700 230.800 15.500 229.400 L 12.800 229.400 " transform="matrix(0.466142863035202, 0, 0, 0.466142863035202, 0.05, -1.05)"/>
    <path id="ID0.9212465109303594" fill="none" stroke="#000000" stroke-width="4" stroke-linecap="round" stroke-linejoin="round" d="M 54.200 255.800 C 53.100 257.600 50.800 259.100 47.200 260.300 C 44 261.400 40.700 262 37.500 262 C 26.400 262 18.300 259.500 13.200 254.300 C 8.700 249.800 5.900 246.800 4.900 245.300 C 3 242.600 2 239.600 2 236.200 C 2 234.200 2.500 231.900 3.300 229.200 L 23.900 197.600 L 28.700 190.300 " transform="matrix(0.466142863035202, 0, 0, 0.466142863035202, 0.05, -1.05)"/>
    <path id="ID0.5062602781690657" fill="none" stroke="#000000" stroke-width="4" stroke-linecap="round" stroke-linejoin="round" d="M 82.900 222.900 L 82.800 223 L 82.900 222.900 " transform="matrix(0.466142863035202, 0, 0, 0.466142863035202, 0.05, -1.05)"/>
    <path id="ID0.38981194561347365" fill="none" stroke="#000000" stroke-width="4" stroke-linecap="round" stroke-linejoin="round" d="M 83.600 222.300 C 83.400 222.400 83.300 222.500 83.200 222.600 C 81.500 224 80.300 224.600 79.600 224.600 C 76.700 223.800 75.300 223.400 75.200 223.400 " transform="matrix(0.466142863035202, 0, 0, 0.466142863035202, 0.05, -1.05)"/>
    <path id="ID0.856947164516896" fill="none" stroke="#000000" stroke-width="4" stroke-linecap="round" stroke-linejoin="round" d="M 83.100 222.300 C 83.100 222.300 83 222.200 83 222.100 C 81.300 219.800 80.100 218 79.400 216.900 " transform="matrix(0.466142863035202, 0, 0, 0.466142863035202, 0.05, -1.05)"/>
    <path id="ID0.1381650324910879" fill="none" stroke="#000000" stroke-width="4" stroke-linecap="round" stroke-linejoin="round" d="M 82.900 222.900 C 83.100 222.700 83.300 222.500 83.600 222.300 " transform="matrix(0.466142863035202, 0, 0, 0.466142863035202, 0.05, -1.05)"/>
    <path id="ID0.16473912820219994" fill="none" stroke="#000000" stroke-width="4" stroke-linecap="round" stroke-linejoin="round" d="M 79.400 216.900 L 75.200 223.400 " transform="matrix(0.466142863035202, 0, 0, 0.466142863035202, 0.05, -1.05)"/>
    <path id="ID0.5194165338762105" fill="none" stroke="#000000" stroke-width="4" stroke-linecap="round" stroke-linejoin="round" d="M 75.200 223.400 L 54.400 255.200 " transform="matrix(0.466142863035202, 0, 0, 0.466142863035202, 0.05, -1.05)"/>
    <path id="ID0.8560360101982951" fill="none" stroke="#000000" stroke-width="4" stroke-linecap="round" stroke-linejoin="round" d="M 79.400 216.900 C 75.200 210.200 68 204.300 57.900 199.300 C 48.500 194.700 38.800 191.700 28.700 190.300 " transform="matrix(0.466142863035202, 0, 0, 0.466142863035202, 0.05, -1.05)"/>
    <path id="ID0.8569476706907153" fill="none" stroke="#000000" stroke-width="4" stroke-linecap="round" stroke-linejoin="round" d="M 86.100 131.200 L 166.800 6.100 " transform="matrix(0.466142863035202, 0, 0, 0.466142863035202, 0.05, -1.05)"/>
    <path id="ID0.5050757043063641" fill="none" stroke="#000000" stroke-width="4" stroke-linecap="round" stroke-linejoin="round" d="M 117 158 C 114.400 153 111.800 148.800 109.300 145.500 " transform="matrix(0.466142863035202, 0, 0, 0.466142863035202, 0.05, -1.05)"/>
  </g>
</svg>